<mxfile host="app.diagrams.net" modified="2024-03-08T07:28:41.537Z" agent="Mozilla/5.0 (Windows NT 10.0; Win64; x64) AppleWebKit/537.36 (KHTML, like Gecko) Chrome/122.0.0.0 Safari/537.36" version="24.0.2" etag="YqT0y3Zt222QyrMNaRez" type="github">
  <diagram name="Страница — 1" id="xF2xekXC_JMDvc_PN8o-">
    <mxGraphModel>
      <root>
        <mxCell id="0" />
        <mxCell id="1" parent="0" />
      </root>
    </mxGraphModel>
  </diagram>
</mxfile>
